<svg width="57" height="57" viewBox="0 0 57 57" fill="none" xmlns="http://www.w3.org/2000/svg">
<path d="M22.6809 28.5L40.1371 45.9563C40.7309 46.55 41.0182 47.2427 40.9992 48.0344C40.9802 48.826 40.6731 49.5188 40.0777 50.1125C39.4824 50.7063 38.7897 51.0031 37.9996 51.0031C37.2095 51.0031 36.5168 50.7063 35.9215 50.1125L17.634 31.8844C17.159 31.4094 16.8027 30.875 16.5652 30.2813C16.3277 29.6875 16.209 29.0938 16.209 28.5C16.209 27.9063 16.3277 27.3125 16.5652 26.7188C16.8027 26.125 17.159 25.5906 17.634 25.1156L35.9215 6.82813C36.5152 6.23438 37.2182 5.947 38.0305 5.966C38.8427 5.985 39.5449 6.29217 40.1371 6.8875C40.7293 7.48284 41.0262 8.17554 41.0277 8.96563C41.0293 9.75571 40.7324 10.4484 40.1371 11.0438L22.6809 28.5Z" fill="white"/>
</svg>
