<svg width="40" height="50" viewBox="0 0 40 50" fill="none" xmlns="http://www.w3.org/2000/svg">
<path fill-rule="evenodd" clip-rule="evenodd" d="M21.3845 48.2937L21.3568 48.2988L21.1776 48.3871L21.1272 48.3972L21.0918 48.3871L20.9127 48.2988C20.8858 48.2904 20.8656 48.2946 20.8522 48.3114L20.8421 48.3366L20.7992 49.4165L20.8118 49.467L20.837 49.4998L21.0994 49.6865L21.1373 49.6966L21.1675 49.6865L21.4299 49.4998L21.4602 49.4594L21.4703 49.4165L21.4274 48.3391C21.4207 48.3122 21.4064 48.2971 21.3845 48.2937ZM22.0532 48.0086L22.0204 48.0137L21.5536 48.2483L21.5283 48.2735L21.5208 48.3013L21.5662 49.3862L21.5788 49.4165L21.599 49.4342L22.1061 49.6688C22.1381 49.6772 22.1625 49.6705 22.1793 49.6486L22.1894 49.6133L22.1036 48.0641C22.0952 48.0338 22.0784 48.0153 22.0532 48.0086ZM20.2491 48.0137C20.238 48.0069 20.2247 48.0047 20.212 48.0076C20.1993 48.0104 20.1882 48.018 20.181 48.0288L20.1659 48.0641L20.0801 49.6133C20.0818 49.6436 20.0961 49.6638 20.123 49.6739L20.1608 49.6688L20.668 49.4342L20.6932 49.414L20.7033 49.3862L20.7462 48.3013L20.7386 48.271L20.7134 48.2458L20.2491 48.0137Z" fill="white"/>
<path fill-rule="evenodd" clip-rule="evenodd" d="M19.8883 25.2424L33.2684 38.6225C33.9784 39.3325 34.9413 39.7313 35.9454 39.7313C36.9495 39.7313 37.9124 39.3325 38.6224 38.6225C39.3324 37.9125 39.7313 36.9495 39.7313 35.9454C39.7313 34.9414 39.3324 33.9784 38.6224 33.2684L25.2373 19.8883L38.6199 6.50822C38.9713 6.15667 39.25 5.73935 39.4401 5.28008C39.6302 4.82082 39.728 4.32861 39.7279 3.83156C39.7278 3.33451 39.6297 2.84234 39.4394 2.38317C39.2491 1.924 38.9702 1.50681 38.6186 1.15542C38.2671 0.804036 37.8498 0.525334 37.3905 0.335228C36.9312 0.145122 36.439 0.0473361 35.942 0.0474532C35.4449 0.0475704 34.9528 0.145588 34.4936 0.33591C34.0344 0.526232 33.6172 0.805132 33.2658 1.15668L19.8883 14.5368L6.50817 1.15668C6.15922 0.795049 5.74174 0.50653 5.28008 0.307964C4.81843 0.109398 4.32186 0.00476084 3.81934 0.000158714C3.31681 -0.00444341 2.81841 0.091081 2.3532 0.281159C1.88798 0.471236 1.46529 0.75206 1.10977 1.10725C0.754248 1.46243 0.473026 1.88486 0.28251 2.34989C0.0919938 2.81492 -0.00400056 3.31324 0.000127712 3.81577C0.00425598 4.3183 0.108424 4.81497 0.306554 5.27681C0.504685 5.73864 0.792809 6.1564 1.15412 6.5057L14.5393 19.8883L1.15664 33.2709C0.795333 33.6202 0.507209 34.038 0.309078 34.4998C0.110948 34.9617 0.00677892 35.4583 0.00265065 35.9609C-0.00147762 36.4634 0.0945168 36.9617 0.285033 37.4267C0.475549 37.8918 0.756771 38.3142 1.11229 38.6694C1.46781 39.0246 1.89051 39.3054 2.35572 39.4955C2.82093 39.6856 3.31934 39.7811 3.82186 39.7765C4.32438 39.7719 4.82096 39.6672 5.28261 39.4687C5.74426 39.2701 6.16174 38.9816 6.5107 38.6199L19.8883 25.2424Z" fill="white"/>
</svg>
