<svg width="49" height="49" viewBox="0 0 49 49" fill="none" xmlns="http://www.w3.org/2000/svg">
<path d="M14.2917 14.2916H12.2501C11.1671 14.2916 10.1285 14.7218 9.36273 15.4876C8.59695 16.2534 8.16675 17.292 8.16675 18.375V36.75C8.16675 37.8329 8.59695 38.8715 9.36273 39.6373C10.1285 40.4031 11.1671 40.8333 12.2501 40.8333H30.6251C31.708 40.8333 32.7467 40.4031 33.5124 39.6373C34.2782 38.8715 34.7084 37.8329 34.7084 36.75V34.7083" stroke="white" stroke-width="2" stroke-linecap="round" stroke-linejoin="round"/>
<path d="M32.6667 10.2083L38.7917 16.3333M41.6194 13.4443C42.4235 12.6402 42.8752 11.5496 42.8752 10.4125C42.8752 9.2753 42.4235 8.1847 41.6194 7.3806C40.8153 6.5765 39.7247 6.12476 38.5875 6.12476C37.4503 6.12476 36.3597 6.5765 35.5556 7.3806L18.375 24.5V30.625H24.5L41.6194 13.4443Z" stroke="white" stroke-width="2" stroke-linecap="round" stroke-linejoin="round"/>
</svg>
