<svg width="382" height="382" viewBox="0 0 382 382" fill="none" xmlns="http://www.w3.org/2000/svg">
<circle cx="191" cy="191" r="191" fill="black" fill-opacity="0.76"/>
<path d="M204.643 172.81H204.688M186.452 227.381H168.262C164.643 227.381 161.173 225.944 158.615 223.385C156.056 220.827 154.619 217.356 154.619 213.738V168.262C154.619 164.644 156.056 161.174 158.615 158.615C161.173 156.056 164.643 154.619 168.262 154.619H213.738C217.356 154.619 220.826 156.056 223.385 158.615C225.943 161.174 227.381 164.644 227.381 168.262V186.452" stroke="white" stroke-width="2" stroke-linecap="round" stroke-linejoin="round"/>
<path d="M154.619 204.643L172.809 186.452C177.03 182.391 182.232 182.391 186.452 186.452L200.095 200.095L204.643 195.548C206.052 194.192 207.571 193.287 209.131 192.837M220.196 207.417C221.082 206.53 222.135 205.827 223.294 205.347C224.453 204.867 225.695 204.62 226.949 204.62C228.203 204.62 229.445 204.867 230.604 205.347C231.762 205.827 232.815 206.53 233.702 207.417C234.589 208.304 235.292 209.357 235.772 210.515C236.252 211.674 236.499 212.916 236.499 214.17C236.499 215.424 236.252 216.666 235.772 217.825C235.292 218.984 234.589 220.037 233.702 220.923L218.286 236.476H204.643V222.833L220.196 207.417Z" stroke="white" stroke-width="2" stroke-linecap="round" stroke-linejoin="round"/>
</svg>
