<svg width="49" height="44" viewBox="0 0 49 44" fill="none" xmlns="http://www.w3.org/2000/svg">
<path d="M5.44444 0C2.44149 0 0 2.44149 0 5.44444V29.9444C0 32.9474 2.44149 35.3889 5.44444 35.3889H20.4167L19.5064 38.1111H13.6111C12.1054 38.1111 10.8889 39.3276 10.8889 40.8333C10.8889 42.3391 12.1054 43.5556 13.6111 43.5556H35.3889C36.8946 43.5556 38.1111 42.3391 38.1111 40.8333C38.1111 39.3276 36.8946 38.1111 35.3889 38.1111H29.4936L28.5833 35.3889H43.5556C46.5585 35.3889 49 32.9474 49 29.9444V5.44444C49 2.44149 46.5585 0 43.5556 0H5.44444ZM43.5556 5.44444V29.9444H5.44444V5.44444H43.5556Z" fill="white"/>
</svg>
