<svg width="41" height="43" viewBox="0 0 41 43" fill="none" xmlns="http://www.w3.org/2000/svg">
<path d="M20.5 27.625C23.8827 27.625 26.625 24.8827 26.625 21.5C26.625 18.1173 23.8827 15.375 20.5 15.375C17.1173 15.375 14.375 18.1173 14.375 21.5C14.375 24.8827 17.1173 27.625 20.5 27.625Z" stroke="white" stroke-width="1.5"/>
<path d="M24.1035 1.39371C23.3542 1.08337 22.4028 1.08337 20.4999 1.08337C18.5971 1.08337 17.6457 1.08337 16.8964 1.39371C16.4006 1.59892 15.9502 1.89983 15.5708 2.27923C15.1914 2.65862 14.8905 3.10908 14.6853 3.60483C14.4974 4.06012 14.4219 4.593 14.3933 5.36679C14.38 5.92606 14.2251 6.47282 13.943 6.95593C13.6609 7.43904 13.2609 7.8427 12.7804 8.12917C12.292 8.40228 11.7424 8.54704 11.1829 8.5499C10.6233 8.55275 10.0722 8.41361 9.58111 8.1455C8.89511 7.78208 8.39898 7.582 7.90694 7.51667C6.83368 7.37553 5.74829 7.66633 4.88936 8.32517C4.24828 8.82129 3.77053 9.64408 2.81911 11.2917C1.86769 12.9393 1.38994 13.7621 1.28582 14.5686C1.21566 15.1003 1.25095 15.6407 1.38967 16.1588C1.5284 16.6769 1.76784 17.1627 2.09432 17.5882C2.39648 17.9802 2.81911 18.3089 3.47449 18.7213C4.44019 19.3277 5.06086 20.3608 5.06086 21.5C5.06086 22.6393 4.44019 23.6724 3.47449 24.2767C2.81911 24.6912 2.39444 25.0199 2.09432 25.4119C1.76784 25.8374 1.5284 26.3231 1.38967 26.8413C1.25095 27.3594 1.21566 27.8997 1.28582 28.4315C1.39199 29.2359 1.86769 30.0608 2.81707 31.7084C3.77053 33.356 4.24624 34.1788 4.88936 34.6749C5.31492 35.0014 5.80063 35.2408 6.31874 35.3796C6.83686 35.5183 7.37723 35.5536 7.90899 35.4834C8.39899 35.4181 8.89511 35.218 9.58111 34.8546C10.0722 34.5865 10.6233 34.4473 11.1829 34.4502C11.7424 34.453 12.292 34.5978 12.7804 34.8709C13.7665 35.4426 14.3525 36.494 14.3933 37.6333C14.4219 38.4091 14.4954 38.94 14.6853 39.3952C14.8905 39.891 15.1914 40.3415 15.5708 40.7209C15.9502 41.1003 16.4006 41.4012 16.8964 41.6064C17.6457 41.9167 18.5971 41.9167 20.4999 41.9167C22.4028 41.9167 23.3542 41.9167 24.1035 41.6064C24.5992 41.4012 25.0497 41.1003 25.4291 40.7209C25.8085 40.3415 26.1094 39.891 26.3146 39.3952C26.5024 38.94 26.578 38.4091 26.6066 37.6333C26.6474 36.494 27.2334 35.4405 28.2195 34.8709C28.7078 34.5978 29.2575 34.453 29.817 34.4502C30.3766 34.4473 30.9277 34.5865 31.4188 34.8546C32.1048 35.218 32.6009 35.4181 33.0909 35.4834C33.6227 35.5536 34.163 35.5183 34.6811 35.3796C35.1993 35.2408 35.685 35.0014 36.1105 34.6749C36.7537 34.1808 37.2294 33.356 38.1808 31.7084C39.1322 30.0608 39.6099 29.238 39.7141 28.4315C39.7842 27.8997 39.7489 27.3594 39.6102 26.8413C39.4715 26.3231 39.232 25.8374 38.9056 25.4119C38.6034 25.0199 38.1808 24.6912 37.5254 24.2788C37.0475 23.9876 36.6513 23.58 36.3738 23.094C36.0964 22.608 35.9468 22.0596 35.939 21.5C35.939 20.3608 36.5597 19.3277 37.5254 18.7234C38.1808 18.3089 38.6054 17.9802 38.9056 17.5882C39.232 17.1627 39.4715 16.6769 39.6102 16.1588C39.7489 15.6407 39.7842 15.1003 39.7141 14.5686C39.6079 13.7642 39.1322 12.9393 38.1828 11.2917C37.2294 9.64408 36.7537 8.82129 36.1105 8.32517C35.685 7.99868 35.1993 7.75924 34.6811 7.62052C34.163 7.48179 33.6227 7.4465 33.0909 7.51667C32.6009 7.582 32.1048 7.78208 31.4167 8.1455C30.9259 8.41325 30.3751 8.55219 29.816 8.54933C29.2569 8.54648 28.7076 8.40192 28.2195 8.12917C27.739 7.8427 27.339 7.43904 27.0569 6.95593C26.7748 6.47282 26.6199 5.92606 26.6066 5.36679C26.578 4.59096 26.5045 4.06012 26.3146 3.60483C26.1094 3.10908 25.8085 2.65862 25.4291 2.27923C25.0497 1.89983 24.5992 1.59892 24.1035 1.39371Z" stroke="white" stroke-width="1.5"/>
</svg>
